<mxfile host="app.diagrams.net" modified="2023-05-10T12:57:07.502Z" agent="Mozilla/5.0 (Windows NT 10.0; Win64; x64) AppleWebKit/537.36 (KHTML, like Gecko) Chrome/112.0.0.0 Safari/537.36" version="21.2.9" etag="w8WCTocUT8MxauEfrq5j" type="github">
  <diagram name="Seite-1" id="hH7WTA4g-eqDzDYp0NdS">
    <mxGraphModel>
      <root>
        <mxCell id="0" />
        <mxCell id="1" parent="0" />
      </root>
    </mxGraphModel>
  </diagram>
</mxfile>
